<svg width="97" height="18" fill="none" xmlns="http://www.w3.org/2000/svg"><path d="M7.834 2.523c.21-.645 1.122-.645 1.331 0l1.086 3.34a.7.7 0 00.665.484h3.513c.678 0 .96.868.412 1.266l-2.842 2.065a.7.7 0 00-.255.783l1.086 3.34c.21.645-.529 1.181-1.077.783L8.91 12.519a.7.7 0 00-.823 0l-2.842 2.065c-.548.399-1.286-.138-1.077-.783l1.086-3.34A.7.7 0 005 9.678L2.158 7.613c-.548-.398-.266-1.266.412-1.266h3.513a.7.7 0 00.665-.484l1.086-3.34zM27.834 2.523c.21-.645 1.122-.645 1.331 0l1.086 3.34a.7.7 0 00.665.484h3.513c.678 0 .96.868.412 1.266l-2.842 2.065a.7.7 0 00-.255.783l1.086 3.34c.21.645-.529 1.181-1.077.783l-2.842-2.065a.7.7 0 00-.823 0l-2.842 2.065c-.548.399-1.287-.138-1.077-.783l1.085-3.34A.7.7 0 0025 9.678L22.16 7.613c-.55-.398-.267-1.266.41-1.266h3.514a.7.7 0 00.665-.484l1.086-3.34zM47.834 2.523c.21-.645 1.122-.645 1.331 0l1.086 3.34a.7.7 0 00.666.484h3.512c.678 0 .96.868.412 1.266l-2.842 2.065a.7.7 0 00-.255.783l1.086 3.34c.21.645-.529 1.181-1.077.783l-2.842-2.065a.7.7 0 00-.823 0l-2.842 2.065c-.548.399-1.287-.138-1.077-.783l1.086-3.34A.7.7 0 0045 9.678l-2.842-2.065c-.548-.398-.266-1.266.412-1.266h3.513a.7.7 0 00.665-.484l1.086-3.34zM67.834 2.523c.21-.645 1.122-.645 1.331 0l1.086 3.34a.7.7 0 00.665.484h3.513c.678 0 .96.868.412 1.266l-2.842 2.065a.7.7 0 00-.254.783l1.085 3.34c.21.645-.529 1.181-1.077.783l-2.842-2.065a.7.7 0 00-.823 0l-2.842 2.065c-.548.399-1.286-.138-1.077-.783l1.085-3.34A.7.7 0 0065 9.678l-2.842-2.065c-.548-.398-.266-1.266.412-1.266h3.513a.7.7 0 00.665-.484l1.086-3.34zM87.834 2.523c.21-.645 1.122-.645 1.331 0l1.086 3.34a.7.7 0 00.665.484h3.513c.678 0 .96.868.412 1.266l-2.842 2.065a.7.7 0 00-.254.783l1.085 3.34c.21.645-.529 1.181-1.077.783l-2.842-2.065a.7.7 0 00-.823 0l-2.842 2.065c-.548.399-1.286-.138-1.077-.783l1.085-3.34A.7.7 0 0085 9.678L82.16 7.613c-.55-.398-.267-1.266.41-1.266h3.514a.7.7 0 00.665-.484l1.086-3.34z" fill="#00B67A"/></svg>