<svg width="200" height="50" fill="none" xmlns="http://www.w3.org/2000/svg"><g clip-path="url(#clip0_1771_11269)"><path d="M52.56 17.803h20.25v3.76h-7.963v21.144H60.47V21.564H52.54v-3.761h.018zm19.385 6.872h3.743v3.48h.07a4.08 4.08 0 01.689-1.424 6.348 6.348 0 011.218-1.265 6.498 6.498 0 011.59-.932 4.88 4.88 0 011.782-.351c.46 0 .795.017.971.035.177.017.353.053.548.07v3.832a12.78 12.78 0 00-.865-.123 7.355 7.355 0 00-.866-.053c-.67 0-1.306.14-1.906.404-.6.264-1.113.668-1.554 1.178-.441.527-.794 1.16-1.06 1.933-.264.773-.388 1.652-.388 2.654v8.577h-3.99V24.675h.018zM100.9 42.707h-3.92v-2.513h-.07c-.495.914-1.219 1.635-2.19 2.18-.97.544-1.96.825-2.966.825-2.383 0-4.114-.58-5.173-1.757-1.06-1.178-1.589-2.953-1.589-5.325V24.675h3.99V35.73c0 1.582.3 2.707.918 3.357.6.65 1.466.984 2.56.984.848 0 1.536-.123 2.101-.387.565-.263 1.024-.597 1.36-1.037.353-.421.6-.949.759-1.546.159-.598.23-1.248.23-1.951V24.692h3.99v18.015zm6.797-5.782c.123 1.16.565 1.969 1.324 2.443.777.457 1.695.703 2.772.703.371 0 .794-.035 1.271-.088a5.357 5.357 0 001.342-.334 2.582 2.582 0 001.042-.72c.264-.317.388-.721.37-1.23-.017-.51-.212-.932-.565-1.248-.353-.334-.794-.58-1.341-.791a13.55 13.55 0 00-1.872-.51c-.706-.14-1.412-.299-2.136-.457a20.281 20.281 0 01-2.154-.598 6.577 6.577 0 01-1.854-.949 4.174 4.174 0 01-1.306-1.511c-.336-.615-.495-1.371-.495-2.285 0-.984.247-1.793.724-2.46a5.484 5.484 0 011.819-1.6 8.44 8.44 0 012.454-.861c.9-.158 1.765-.246 2.577-.246.936 0 1.836.105 2.684.299.847.193 1.624.51 2.313.966a5.71 5.71 0 011.712 1.723c.459.703.742 1.564.865 2.566h-4.166c-.194-.95-.618-1.6-1.307-1.916-.688-.334-1.483-.492-2.366-.492-.282 0-.617.017-1.006.07-.388.053-.741.14-1.094.264a2.38 2.38 0 00-.866.562c-.229.246-.353.563-.353.967 0 .492.177.878.512 1.177.336.3.777.545 1.324.756.548.193 1.166.37 1.872.51.706.14 1.43.298 2.172.457.723.158 1.43.369 2.136.597a6.455 6.455 0 011.871.95c.548.404.989.896 1.324 1.493.336.598.512 1.354.512 2.232 0 1.073-.247 1.969-.741 2.725a5.853 5.853 0 01-1.907 1.81 8.983 8.983 0 01-2.613 1.02c-.953.21-1.907.316-2.842.316-1.148 0-2.207-.123-3.178-.387-.971-.264-1.819-.65-2.525-1.16a5.76 5.76 0 01-1.677-1.95c-.406-.774-.618-1.706-.654-2.778h4.026v-.035zm13.171-12.25h3.019v-5.413h3.99v5.413h3.602v2.97h-3.602v9.631c0 .422.018.774.053 1.09.035.299.124.563.247.773.124.211.318.37.583.475.265.105.6.158 1.059.158.283 0 .565 0 .847-.017.283-.018.565-.053.848-.123v3.075c-.441.053-.883.088-1.289.141-.424.053-.847.07-1.289.07-1.059 0-1.906-.105-2.542-.298-.636-.194-1.148-.493-1.501-.88-.371-.386-.6-.86-.741-1.44a10.78 10.78 0 01-.23-1.986V27.68h-3.019v-3.005h-.035zm13.436 0h3.778v2.443h.07c.565-1.055 1.342-1.793 2.349-2.25 1.006-.457 2.083-.685 3.266-.685 1.43 0 2.666.246 3.725.755a7.277 7.277 0 012.648 2.057c.707.879 1.219 1.898 1.572 3.058s.529 2.408.529 3.726c0 1.213-.159 2.39-.476 3.515a9.406 9.406 0 01-1.43 3.023c-.636.879-1.448 1.564-2.437 2.092-.989.527-2.136.79-3.478.79a9.792 9.792 0 01-1.748-.158 7.73 7.73 0 01-1.677-.51 6.044 6.044 0 01-1.483-.896c-.459-.369-.83-.79-1.148-1.265h-.07v8.999h-3.99V24.675zm13.947 9.034c0-.809-.106-1.6-.318-2.373a6.36 6.36 0 00-.953-2.039 4.85 4.85 0 00-1.571-1.423 4.424 4.424 0 00-2.172-.545c-1.677 0-2.948.58-3.796 1.74-.847 1.16-1.271 2.706-1.271 4.64 0 .914.106 1.757.335 2.53.23.774.548 1.442 1.007 2.004a4.756 4.756 0 001.589 1.318c.618.334 1.342.492 2.154.492.918 0 1.677-.193 2.313-.562a4.879 4.879 0 001.553-1.441 5.967 5.967 0 00.883-2.021c.159-.756.247-1.53.247-2.32zm7.045-15.906h3.99v3.76h-3.99v-3.76zm0 6.872h3.99v18.032h-3.99V24.675zm7.556-6.872h3.99v24.904h-3.99V17.803zm16.226 25.396c-1.448 0-2.737-.245-3.867-.72a8.542 8.542 0 01-2.878-1.969 8.559 8.559 0 01-1.783-3.005c-.406-1.16-.618-2.443-.618-3.832 0-1.37.212-2.636.618-3.796a8.559 8.559 0 011.783-3.005c.777-.844 1.748-1.494 2.878-1.969 1.13-.474 2.419-.72 3.867-.72 1.447 0 2.736.246 3.866.72a8.542 8.542 0 012.878 1.969 8.559 8.559 0 011.783 3.005c.406 1.16.618 2.426.618 3.796 0 1.389-.212 2.672-.618 3.832a8.559 8.559 0 01-1.783 3.005c-.777.844-1.748 1.494-2.878 1.969-1.13.474-2.419.72-3.866.72zm0-3.145c.882 0 1.659-.194 2.312-.563a4.91 4.91 0 001.607-1.459c.424-.597.724-1.283.936-2.038a9.3 9.3 0 00.3-2.32c0-.774-.106-1.53-.3-2.303a5.992 5.992 0 00-.936-2.039 4.86 4.86 0 00-1.607-1.44c-.653-.37-1.43-.563-2.312-.563-.883 0-1.66.193-2.313.562a5.059 5.059 0 00-1.607 1.441c-.424.598-.724 1.266-.936 2.04-.194.772-.3 1.528-.3 2.301a9.3 9.3 0 00.3 2.32 6.15 6.15 0 00.936 2.04 4.91 4.91 0 001.607 1.458c.653.387 1.43.563 2.313.563zm10.31-15.38h3.019v-5.412h3.99v5.413h3.602v2.97h-3.602v9.631c0 .422.018.774.053 1.09.036.299.124.563.248.773.123.211.317.37.582.475.265.105.6.158 1.06.158.282 0 .564 0 .847-.017.282-.018.565-.053.847-.123v3.075c-.441.053-.882.088-1.288.141-.424.053-.848.07-1.289.07-1.06 0-1.907-.105-2.543-.298-.635-.194-1.147-.493-1.5-.88-.371-.386-.601-.86-.742-1.44a10.785 10.785 0 01-.229-1.986V27.68h-3.019v-3.005h-.036z" fill="#fff"/><path d="M47.898 17.803h-18.29L23.958.473l-5.667 17.33L0 17.786l14.812 10.72L9.145 45.82l14.813-10.704L38.753 45.82l-5.65-17.312 14.795-10.704z" fill="#00B67A"/><path d="M34.374 32.425l-1.271-3.92-9.146 6.61 10.417-2.69z" fill="#005128"/></g><defs><clipPath id="clip0_1771_11269"><path fill="#fff" transform="translate(0 .474)" d="M0 0h200v48.895H0z"/></clipPath></defs></svg>